<?xml version="1.0" encoding="utf-8" standalone="yes"?>
<svg xmlns="http://www.w3.org/2000/svg" xmlns:xlink="http://www.w3.org/1999/xlink" width="924" height="672" viewBox="0 0 924 672" style="fill:none;stroke:none;fill-rule:evenodd;clip-rule:evenodd;stroke-linecap:round;stroke-linejoin:round;stroke-miterlimit:1.5;" version="1.1">
  <style class="text-font-style fontImports" data-font-family="Shantell Sans">@import url('https://fonts.googleapis.com/css2?family=Shantell+Sans:wght@300..800&amp;display=block');</style>
  <g id="items" style="isolation: isolate">
    <g id="blend" style="mix-blend-mode: normal">
      <g id="g-root-cp_6_g-6_uy4x2treo4-fill" data-item-order="-504566" transform="translate(273, 230.24102783203125)">
        <g id="cp_6_g-6_uy4x2treo4-fill" stroke="none" fill="#e7e1ff">
          <g>
            <path d="M 190.5 133.5L 190.1 129.9L 168.7 117.8L 170.7 135.7ZM 168.7 117.8L 148.2 127.4L 165 141.6L 190.1 129.9ZM 165 141.6L 172.8 113.8L 155.9 99.9L 148.2 127.4ZM 155.9 99.9L 123.3 116.2L 136.2 132.2L 172.8 113.8ZM 136.2 132.2L 163.9 97.8L 150 83.2L 123.3 116.2ZM 150 83.2L 98.5 120.6L 113.8 134.1L 163.9 97.8ZM 113.8 134.1L 144.4 78.6L 128.5 66.1L 98.5 120.6ZM 128.5 66.1L 73.3 116.4L 89 129.1L 144.4 78.6ZM 89 129.1L 128.2 63.5L 112.3 51.1L 73.3 116.4ZM 112.3 51.1L 52.4 110.4L 68.5 122.6L 128.2 63.5ZM 68.5 122.6L 114.4 39L 98 27.4L 52.4 110.4ZM 98 27.4L 29.9 103.7L 46.1 115.6L 114.4 39ZM 46.1 115.6L 98.8 28.5L 82.9 16L 29.9 103.7ZM 82.9 16L 12.1 86.1L 28 98.5L 98.8 28.5ZM 28 98.5L 76.1 17.1L 60.2 4.7L 12.1 86.1ZM 60.2 4.7L 10.6 54.4L 26.7 66.6L 76.1 17.1ZM 26.7 66.6L 50.5 24.3L 33.1 14.5L 10.6 54.4Z" fill-rule="nonzero"></path>
          </g>
        </g>
      </g>
      <g id="g-root-cp_5_g-5_uy4x2treo6-fill" data-item-order="-504562" transform="translate(273, 356.53704833984375)">
        <g id="cp_5_g-5_uy4x2treo6-fill" stroke="none" fill="#f5e0ff">
          <g>
            <path d="M 187.7 18.5L 183.1 10.5L 162.4 14.5L 170.3 28.4ZM 162.4 14.5L 158.9 40.3L 179.8 35.3L 183.1 10.5ZM 179.8 35.3L 163.7 11.9L 143.8 18.2L 158.9 40.3ZM 143.8 18.2L 144.2 58L 164.2 51.7L 163.7 11.9ZM 164.2 51.7L 136.4 11.6L 117.3 19.1L 144.2 58ZM 117.3 19.1L 125.2 76.4L 144.5 69.8L 136.4 11.6ZM 144.5 69.8L 116.5 22.1L 97.6 29.4L 125.2 76.4ZM 97.6 29.4L 111.6 98.5L 130.5 91.2L 116.5 22.1ZM 130.5 91.2L 91.7 25.9L 73.2 33.8L 111.6 98.5ZM 73.2 33.8L 96.3 114.9L 114.9 107.1L 91.7 25.9ZM 114.9 107.1L 70.2 29.2L 51.8 37.4L 96.3 114.9ZM 51.8 37.4L 83 131.4L 101.3 123L 70.2 29.2ZM 101.3 123L 44.7 28.6L 26.3 37L 83 131.4ZM 26.3 37L 59.1 138L 77.4 129.7L 44.7 28.6ZM 77.4 129.7L 29.6 49.7L 11.2 58.1L 59.1 138ZM 11.2 58.1L 33.5 126.5L 51.8 118.1L 29.6 49.7ZM 51.8 118.1L 24.3 73.2L 7.2 83.7L 33.5 126.5Z" fill-rule="nonzero"></path>
          </g>
        </g>
      </g>
      <g id="g-root-cp_4_g-4_1um5hzl2trf9c-fill" data-item-order="-504558" transform="translate(398.14801025390625, 356.57098388671875)">
        <g id="cp_4_g-4_1um5hzl2trf9c-fill" stroke="none" fill="#ffd7ef">
          <g>
            <path d="M 75.7 17L 62.3 11.1L 50.1 27.6L 67.6 35.3ZM 50.1 27.6L 76.6 58.8L 86.1 39.1L 62.3 11.1ZM 86.1 39.1L 52.7 38L 46.8 57.8L 76.6 58.8ZM 46.8 57.8L 79.9 77.9L 85.9 58.2L 52.7 38ZM 85.9 58.2L 41.9 56.2L 37.4 76L 79.9 77.9ZM 37.4 76L 96 100.9L 100.7 81.2L 41.9 56.2ZM 100.7 81.2L 32 76.3L 28 96L 96 100.9ZM 28 96L 101.6 121L 105.3 101.2L 32 76.3ZM 105.3 101.2L 32.3 98.3L 28.6 118.2L 101.6 121ZM 28.6 118.2L 112.7 146.6L 116.7 126.9L 32.3 98.3ZM 116.7 126.9L 19.1 119.5L 15.9 139.3L 112.7 146.6ZM 15.9 139.3L 118.7 166L 121.6 146.1L 19.1 119.5ZM 121.6 146.1L 14.7 141.9L 11.9 161.8L 118.7 166ZM 11.9 161.8L 109.2 186.1L 111.7 166.1L 14.7 141.9ZM 111.7 166.1L 15.8 166.3L 13 186.3L 109.2 186.1ZM 13 186.3L 84.1 207.1L 87.1 187.2L 15.8 166.3ZM 87.1 187.2L 38.9 186.5L 38.6 206.5L 84.1 207.1Z" fill-rule="nonzero"></path>
          </g>
        </g>
      </g>
      <g id="g-root-cp_3_g-3_1um5hzl2trf9e-fill" data-item-order="-504554" transform="translate(452.2149658203125, 356.52801513671875)">
        <g id="cp_3_g-3_1um5hzl2trf9e-fill" stroke="none" fill="#ffd9d8">
          <g>
            <path d="M 19.1 4.4L 10.5 15.2L 22.3 32.5L 34.7 16.9ZM 22.3 32.5L 54 22.5L 42.4 5.2L 10.5 15.2ZM 42.4 5.2L 23.5 27.9L 36.2 43.9L 54 22.5ZM 36.2 43.9L 75.9 23.8L 61 9L 23.5 27.9ZM 61 9L 38 55L 54.3 67.1L 75.9 23.8ZM 54.3 67.1L 98.4 25.8L 81.4 14.3L 38 55ZM 81.4 14.3L 59.1 71.1L 76.3 82.1L 98.4 25.8ZM 76.3 82.1L 121.2 35L 104.8 23.3L 59.1 71.1ZM 104.8 23.3L 72.4 85.8L 88.6 98L 121.2 35ZM 88.6 98L 148.5 40.5L 132.6 28L 72.4 85.8ZM 132.6 28L 84.1 110.7L 100.5 122.3L 148.5 40.5ZM 100.5 122.3L 167.8 42.4L 151.1 31.2L 84.1 110.7ZM 151.1 31.2L 103.3 121L 120.1 132L 167.8 42.4ZM 120.1 132L 181.6 54.1L 164.8 43.1L 103.3 121ZM 164.8 43.1L 118.3 129.2L 134.1 141.9L 181.6 54.1ZM 134.1 141.9L 191.6 92.5L 176.1 79.5L 118.3 129.2ZM 176.1 79.5L 150.9 121.6L 168 131.9L 191.6 92.5Z" fill-rule="nonzero"></path>
          </g>
        </g>
      </g>
      <g id="g-root-cp_2_g-2_1lqihqp2trg24-fill" data-item-order="-504550" transform="translate(452.20703125, 230)">
        <g id="cp_2_g-2_1lqihqp2trg24-fill" stroke="none" fill="#ffe4cb">
          <g>
            <path d="M 8.5 131.1L 9.5 135.9L 30.4 138.7L 28.2 127.4ZM 30.4 138.7L 45 109L 22.1 110.2L 9.5 135.9ZM 22.1 110.2L 39.4 137.6L 59 131.1L 45 109ZM 59 131.1L 54.9 81.2L 35.3 87.2L 39.4 137.6ZM 35.3 87.2L 57.4 126.1L 77.1 120.2L 54.9 81.2ZM 77.1 120.2L 73.7 64.6L 54 69.8L 57.4 126.1ZM 54 69.8L 81.5 126.2L 100.3 119.2L 73.7 64.6ZM 100.3 119.2L 80.7 42.9L 62.3 51.7L 81.5 126.2ZM 62.3 51.7L 73.5 66.9L 95.4 62.9L 80.7 42.9ZM 95.4 62.9L 104 32.6L 82.4 35.5L 73.5 66.9ZM 82.4 35.5L 135.8 124.5L 153.9 115.9L 104 32.6ZM 153.9 115.9L 119.1 18.3L 100.9 26.9L 135.8 124.5ZM 100.9 26.9L 152.9 113.3L 171.3 105L 119.1 18.3ZM 171.3 105L 140.4 4.7L 122 12.9L 152.9 113.3ZM 122 12.9L 172 96.6L 190.1 88L 140.4 4.7ZM 190.1 88L 163.7 14.6L 145.9 24.2L 172 96.6ZM 145.9 24.2L 179.8 68.8L 195.7 56.7L 163.7 14.6ZM 70.7 57.5L 106.5 128L 124.3 118.9L 88.5 48.4Z" fill-rule="nonzero"></path>
          </g>
        </g>
      </g>
      <g id="g-root-cp_1_g-1_1lqihqp2trg26-fill" data-item-order="-504546" transform="translate(398, 158)">
        <g id="cp_1_g-1_1lqihqp2trg26-fill" stroke="none" fill="#fff8b6">
          <g>
            <path d="M 58 205.3L 63 208L 75.5 192L 67.4 187.7ZM 75.5 192L 52.9 166.7L 45.9 188.9L 63 208ZM 45.9 188.9L 73.8 182.3L 78.5 160.6L 52.9 166.7ZM 78.5 160.6L 49.8 138.2L 41.4 156.9L 73.8 182.3ZM 41.4 156.9L 80.5 164.2L 87.2 145.1L 49.8 138.2ZM 87.2 145.1L 35.9 117.9L 30.4 137.7L 80.5 164.2ZM 30.4 137.7L 90.8 140.8L 94.7 121L 35.9 117.9ZM 94.7 121L 29.3 98.2L 26.3 118.4L 90.8 140.8ZM 26.3 118.4L 100 115.3L 101.7 95.2L 29.3 98.2ZM 101.7 95.2L 18.5 77.8L 16 97.7L 100 115.3ZM 16 97.7L 105.7 102L 109.1 82.2L 18.5 77.8ZM 109.1 82.2L 12.6 53.1L 9.8 73.1L 105.7 102ZM 9.8 73.1L 117.7 72L 119.4 52L 12.6 53.1ZM 119.4 52L 19.8 34.2L 18.2 54.2L 117.7 72ZM 18.2 54.2L 104.4 52.9L 107.5 32.8L 19.8 34.2ZM 107.5 32.8L 39.4 10.1L 35.7 29.9L 104.4 52.9ZM 35.7 29.9L 86.7 32.7L 87.8 12.7L 39.4 10.1Z" fill-rule="nonzero"></path>
          </g>
        </g>
      </g>
      <g id="g-root-tx__1ha2ij52u6vpk-fill" data-item-order="0" transform="translate(518, 158)">
        <g id="tx__1ha2ij52u6vpk-fill" stroke="none" fill="#484848">
          <g>
            <text style="font: 15px &quot;Shantell Sans&quot;, cursive; white-space: pre;" font-size="15px" font-family="'Shantell Sans', cursive">
              <tspan x="12" y="28.67">需要安装组件库，示例可在不</tspan>
              <tspan x="12" y="46.67">安装的情况下使用。</tspan>
            </text>
          </g>
        </g>
      </g>
      <g id="g-root-ic_left_1cvhykx2tregx-fill" data-item-order="0" transform="translate(428, 188)"></g>
      <g id="g-root-tx_merakiui_1q7ky1d2u6txd-fill" data-item-order="0" transform="translate(146, 254)">
        <g id="tx_merakiui_1q7ky1d2u6txd-fill" stroke="none" fill="#484848">
          <g>
            <text style="font: bold 20px &quot;Shantell Sans&quot;, cursive; white-space: pre;" font-weight="bold" font-size="20px" font-family="'Shantell Sans', cursive">
              <tspan x="22.99" y="35.33">Merakiui</tspan>
            </text>
          </g>
        </g>
      </g>
      <g id="g-root-ic_modu_18lx7bl2u40zq-fill" data-item-order="0" transform="translate(302, 260)"></g>
      <g id="g-root-ic_yuan_qoefyp2tsu8a-fill" data-item-order="0" transform="translate(554, 260)"></g>
      <g id="g-root-tx_hyperui_13z8h8x2u6u4p-fill" data-item-order="0" transform="translate(650, 260)">
        <g id="tx_hyperui_13z8h8x2u6u4p-fill" stroke="none" fill="#484848">
          <g>
            <text style="font: bold 20px &quot;Shantell Sans&quot;, cursive; white-space: pre;" font-weight="bold" font-size="20px" font-family="'Shantell Sans', cursive">
              <tspan x="12" y="35.33">Hyperui</tspan>
            </text>
          </g>
        </g>
      </g>
      <g id="g-root-tx__1hbxxsh2u6uq2-fill" data-item-order="0" transform="translate(98, 289.99993896484375)">
        <g id="tx__1hbxxsh2u6uq2-fill" stroke="none" fill="#484848">
          <g>
            <text style="font: 15px &quot;Shantell Sans&quot;, cursive; white-space: pre;" font-size="15px" font-family="'Shantell Sans', cursive">
              <tspan x="14" y="31.67">提供可用组件的网站。</tspan>
            </text>
          </g>
        </g>
      </g>
      <g id="g-root-tx__13z8h8x2u6u4q-fill" data-item-order="0" transform="translate(650, 295.99993896484375)">
        <g id="tx__13z8h8x2u6u4q-fill" stroke="none" fill="#484848">
          <g>
            <text style="font: 15px &quot;Shantell Sans&quot;, cursive; white-space: pre;" font-size="15px" font-family="'Shantell Sans', cursive">
              <tspan x="12" y="28.67">完全免费，无需组件库，直接</tspan>
              <tspan x="12" y="46.67">复制使用。</tspan>
            </text>
          </g>
        </g>
      </g>
      <g id="g-root-tx_preline_1lpw0nl2u6uxb-fill" data-item-order="0" transform="translate(518, 122)">
        <g id="tx_preline_1lpw0nl2u6uxb-fill" stroke="none" fill="#484848">
          <g>
            <text style="font: bold 20px &quot;Shantell Sans&quot;, cursive; white-space: pre;" font-weight="bold" font-size="20px" font-family="'Shantell Sans', cursive">
              <tspan x="12" y="35.33">Preline</tspan>
            </text>
          </g>
        </g>
      </g>
      <g id="g-root-tx_tailwind_1hbbgpd2trdoo-fill" data-item-order="0" transform="translate(326, 38)">
        <g id="tx_tailwind_1hbbgpd2trdoo-fill" stroke="none" fill="#484848">
          <g>
            <text style="font: bold 25px &quot;Shantell Sans&quot;, cursive; white-space: pre;" font-weight="bold" font-size="25px" font-family="'Shantell Sans', cursive">
              <tspan x="13.3" y="44.33">Tailwind CSS 组件库</tspan>
            </text>
          </g>
        </g>
      </g>
      <g id="g-root-tx__dcxxld2u6u4u-fill" data-item-order="0" transform="translate(182, 553.9999389648438)">
        <g id="tx__dcxxld2u6u4u-fill" stroke="none" fill="#484848">
          <g>
            <text style="font: 15px &quot;Shantell Sans&quot;, cursive; white-space: pre;" font-size="15px" font-family="'Shantell Sans', cursive">
              <tspan x="17" y="28.67">付费，但可在不安装的情况下</tspan>
              <tspan x="92" y="46.67">使用，设计美观。</tspan>
            </text>
          </g>
        </g>
      </g>
      <g id="g-root-tx_mambaui_8x4fgx2u6ux3-fill" data-item-order="0" transform="translate(146, 391.99993896484375)">
        <g id="tx_mambaui_8x4fgx2u6ux3-fill" stroke="none" fill="#484848">
          <g>
            <text style="font: bold 20px &quot;Shantell Sans&quot;, cursive; white-space: pre;" font-weight="bold" font-size="20px" font-family="'Shantell Sans', cursive">
              <tspan x="19.04" y="35.33">Mambaui</tspan>
            </text>
          </g>
        </g>
      </g>
      <g id="g-root-ic_lubu_m7ygr52tyfph-fill" data-item-order="0" transform="translate(302, 403.99993896484375)"></g>
      <g id="g-root-ic_node_1qbbsk12tu683-fill" data-item-order="0" transform="translate(554, 403.99993896484375)"></g>
      <g id="g-root-tx_tailwind_qnryvl2u6vpn-fill" data-item-order="0" transform="translate(650, 398.99993896484375)">
        <g id="tx_tailwind_qnryvl2u6vpn-fill" stroke="none" fill="#484848">
          <g>
            <text style="font: bold 20px &quot;Shantell Sans&quot;, cursive; white-space: pre;" font-weight="bold" font-size="20px" font-family="'Shantell Sans', cursive">
              <tspan x="12" y="35.33">Tailwind-kit</tspan>
            </text>
          </g>
        </g>
      </g>
      <g id="g-root-tx__1umrz2p2u6waw-fill" data-item-order="0" transform="translate(50, 427.99993896484375)">
        <g id="tx__1umrz2p2u6waw-fill" stroke="none" fill="#484848">
          <g>
            <text style="font: 15px &quot;Shantell Sans&quot;, cursive; white-space: pre;" font-size="15px" font-family="'Shantell Sans', cursive">
              <tspan x="17" y="28.67">免费、开源，组件数量有限，</tspan>
              <tspan x="137" y="46.67">值得探索。</tspan>
            </text>
          </g>
        </g>
      </g>
      <g id="g-root-tx__qnryvl2u6vpo-fill" data-item-order="0" transform="translate(650, 434.99993896484375)">
        <g id="tx__qnryvl2u6vpo-fill" stroke="none" fill="#484848">
          <g>
            <text style="font: 15px &quot;Shantell Sans&quot;, cursive; white-space: pre;" font-size="15px" font-family="'Shantell Sans', cursive">
              <tspan x="12" y="28.67">完全免费，无需组件库，直接</tspan>
              <tspan x="12" y="46.67">复制使用。</tspan>
            </text>
          </g>
        </g>
      </g>
      <g id="g-root-ic_gaug_zjez4h2tx0qs-fill" data-item-order="0" transform="translate(428, 475.99993896484375)"></g>
      <g id="g-root-tx_flowbite_m8kxu92u6tc5-fill" data-item-order="0" transform="translate(290, 517.9999389648438)">
        <g id="tx_flowbite_m8kxu92u6tc5-fill" stroke="none" fill="#484848">
          <g>
            <text style="font: bold 20px &quot;Shantell Sans&quot;, cursive; white-space: pre;" font-weight="bold" font-size="20px" font-family="'Shantell Sans', cursive">
              <tspan x="14.08" y="35.33">Flowbite</tspan>
            </text>
          </g>
        </g>
      </g>
      <g id="g-root-cp_6_g-6_uy4x2treo4-stroke" data-item-order="-504566" transform="translate(273, 230.24102783203125)">
        <g id="cp_6_g-6_uy4x2treo4-stroke" fill="none" stroke-linecap="round" stroke-linejoin="round" stroke-miterlimit="4" stroke="#484848" stroke-width="4">
          <g>
            <path d="M 91 17.2C 98.1 21.3 104.2 26.6 108.3 33.1C 119.2 50.2 123 73.1 110.8 91C 104.5 100.2 97.4 108.4 87.9 112.4C 78 116.6 66.9 120.8 56.5 117.5C 49.8 116 43.5 113.7 37 110.8C 9.9 98.4 3 63.2 17.2 37C 31.5 10.8 64.6 3.4 91 17.2M 108.3 33.1C 120.3 49.4 122.8 73 110.8 91C 98.1 109.8 77.7 120.3 56.5 117.5C 72.5 119.1 88.3 123.1 104.4 124.3C 120 125.4 135.4 127.8 150.7 130.9C 163.4 133.5 176.4 134.3 189.2 136.4C 180.7 125 171.6 114.1 162.9 102.8C 154.4 91.8 146.4 80.5 137.2 70C 126.9 58.3 117.9 45.5 108.3 33.1M 105.9 30.1C 106.6 31.1 107.6 32 108.3 33.1M 56.3 117.5"></path>
            <path d="M 91.009 17.2436C 98.1016 21.3385 103.9138 26.7994 108.3052 33.1021C 119.9052 49.751 121.5912 72.2738 110.7744 91.009C 99.4414 110.6383 77.6455 120.4606 56.4984 117.4986C 56.4337 117.4895 56.369 117.4803 56.3042 117.471C 49.6924 116.5203 43.1474 114.3184 37.009 110.7744C 11.1812 95.8627 2.332 62.8368 17.2436 37.009C 32.1553 11.1812 65.1812 2.332 91.009 17.2436ZM 108.3052 33.1021C 119.9052 49.751 121.5912 72.2738 110.7744 91.009C 99.4414 110.6383 77.6455 120.4606 56.4984 117.4986L 56.5 117.4988L 189.1697 136.3666L 108.3052 33.1021ZM 105.9036 30.0501L 105.9084 30.0415L 108.3052 33.1021M 56.3042 117.471L 56.4984 117.4986"></path>
          </g>
        </g>
      </g>
      <g id="g-root-cp_5_g-5_uy4x2treo6-stroke" data-item-order="-504562" transform="translate(273, 356.53704833984375)">
        <g id="cp_5_g-5_uy4x2treo6-stroke" fill="none" stroke-linecap="round" stroke-linejoin="round" stroke-miterlimit="4" stroke="#484848" stroke-width="4">
          <g>
            <path d="M 37 35.4C 43.3 32.7 49.6 31.1 55.7 28.8C 56.1 28.7 56.5 28.8 56.9 28.7C 77.1 22.2 98.4 36.4 110.8 55.2C 123.2 74.2 119.2 98.4 106.4 115.6C 102.5 121 96.4 124.4 91 129C 68.3 148.3 31.3 135.5 17.2 109.2C 3.2 82.9 11.4 50.8 37 35.4M 106.6 115.5C 113.9 103 123.6 92.1 133.3 81.4C 144.1 69.4 153.2 56.1 163 43.4C 171.7 32.2 180 20.7 189.3 10C 174.5 12 159.8 14.2 145 16.2C 129.6 18.3 114.1 20.1 98.8 22.8C 84.9 25.2 70.9 27.1 56.9 28.7C 77.7 24.6 100.1 35.4 110.8 55.2C 121.5 75.2 119.3 98.3 106.6 115.5M 106.6 115.5C 106.5 115.5 106.5 115.6 106.4 115.6M 55.7 28.8C 55.8 28.8 55.9 28.8 56 28.8C 56.3 28.8 56.6 28.6 56.9 28.7"></path>
            <path d="M 37.009 35.4478C 42.9672 32.0078 49.3084 29.8324 55.7219 28.8381C 56.1125 28.7775 56.5034 28.7214 56.8946 28.6696C 77.9172 25.8845 99.5122 35.7064 110.7744 55.2131C 122.1455 74.9085 119.6995 98.7897 106.4439 115.6322C 102.3166 120.8763 97.1414 125.438 91.009 128.9785C 65.1812 143.8902 32.1553 135.0409 17.2436 109.2131C 2.332 83.3853 11.1812 50.3594 37.009 35.4478ZM 106.5764 115.4631L 189.2518 10L 56.8946 28.6696C 77.9172 25.8845 99.5122 35.7064 110.7744 55.2131C 122.1077 74.8429 119.716 98.6302 106.5764 115.4631ZM 106.5764 115.4631L 106.4439 115.6322M 55.7219 28.8381L 56 28.7957L 56.8946 28.6696"></path>
          </g>
        </g>
      </g>
      <g id="g-root-cp_4_g-4_1um5hzl2trf9c-stroke" data-item-order="-504558" transform="translate(398.14801025390625, 356.57098388671875)">
        <g id="cp_4_g-4_1um5hzl2trf9c-stroke" fill="none" stroke-linecap="round" stroke-linejoin="round" stroke-miterlimit="4" stroke="#484848" stroke-width="4">
          <g>
            <path d="M 118 154.4C 116.4 184.2 93.8 209.1 64 208.4C 34.2 207.8 9.5 184.3 10 154.4C 10.1 146.4 11.6 138.7 14.9 131.9C 23.9 113.5 42.3 99.1 64 100.4C 85.9 101.8 103.6 114.2 113.3 132.4C 113.4 132.6 113.5 132.8 113.6 132.9C 116.2 139.6 117.5 146.8 118 154.4M 113.3 132.4C 106.3 118.4 102.6 102.9 95.7 88.8C 89 75 82.6 60.9 78.6 46.2C 75.2 33.6 70.4 21.3 64 10C 57.2 21.7 54.4 35.3 48.8 47.6C 42.1 62.8 38.1 79.2 30.3 93.8C 23.8 105.8 20.2 119.2 15 131.8C 24.1 113.7 42.2 99.2 64 100.4C 85.9 101.6 104.9 113.6 113.3 132.4M 113.6 132.9C 113.4 132.8 113.4 132.6 113.3 132.4"></path>
            <path d="M 118 154.4292C 118 184.2526 93.8234 208.4292 64 208.4292C 34.1766 208.4292 10 184.2526 10 154.4292C 10 146.3993 11.7527 138.7787 14.8964 131.9292C 23.4284 113.3394 42.2066 100.4292 64 100.4292C 85.9753 100.4292 104.8846 113.5557 113.315 132.3956C 113.3944 132.573 113.4728 132.7508 113.5503 132.9292C 116.4129 139.5174 118 146.7879 118 154.4292ZM 113.315 132.3956L 64.0075 10L 14.9531 131.8044L 14.8964 131.9292C 23.4284 113.3394 42.2066 100.4292 64 100.4292C 85.9753 100.4292 104.8846 113.5557 113.315 132.3956ZM 113.5503 132.9292L 113.321 132.4104L 113.315 132.3956"></path>
          </g>
        </g>
      </g>
      <g id="g-root-cp_3_g-3_1um5hzl2trf9e-stroke" data-item-order="-504554" transform="translate(452.2149658203125, 356.52801513671875)">
        <g id="cp_3_g-3_1um5hzl2trf9e-stroke" fill="none" stroke-linecap="round" stroke-linejoin="round" stroke-miterlimit="4" stroke="#484848" stroke-width="4">
          <g>
            <path d="M 161.8 35.7C 187 51.7 196.8 83.8 181.6 109.5C 166.3 135.1 133.3 144.8 107.8 129.2C 100.7 124.9 95.2 119.2 90.3 113.1C 77.7 97.4 76.5 73.6 88 55.5C 100.8 35.5 122.9 26.6 145.2 29.5C 150.9 30.2 157 31.9 161.8 35.7M 140.7 28.5C 118.1 26.7 96 20.6 73.4 19C 52.1 17.4 31.2 12 10 10C 21.9 27.1 34.1 44.1 48.4 59.2C 63.9 75.8 75.5 95.7 90.2 113C 79 96.3 75.9 73.2 88 55.5C 101.5 36 123.1 25.3 145.2 29.5C 143.7 28.9 142.2 28.2 140.7 28.5M 90.2 113"></path>
            <path d="M 161.7942 35.7156C 187.622 50.6273 196.4712 83.6531 181.5595 109.4809C 166.6479 135.3087 133.622 144.158 107.7942 129.2463C 100.5995 125.0925 94.7224 119.5331 90.3093 113.1152C 78.88 96.4937 77.2709 74.1141 88.0288 55.4809C 99.8743 34.964 123.1504 25.161 145.1688 29.4719C 150.8682 30.5878 156.4834 32.6494 161.7942 35.7156ZM 140.6673 28.4985L 10 10L 90.2111 112.9719C 78.8709 96.3653 77.3018 74.0606 88.0288 55.4809C 99.8743 34.964 123.1504 25.161 145.1688 29.4719L 140.6673 28.4985ZM 90.2111 112.9719L 90.3093 113.1152"></path>
          </g>
        </g>
      </g>
      <g id="g-root-cp_2_g-2_1lqihqp2trg24-stroke" data-item-order="-504550" transform="translate(452.20703125, 230)">
        <g id="cp_2_g-2_1lqihqp2trg24-stroke" fill="none" stroke-linecap="round" stroke-linejoin="round" stroke-miterlimit="4" stroke="#484848" stroke-width="4">
          <g>
            <path d="M 107.8 17.2C 121.3 10.5 135.8 8.1 149.1 11.9C 162.3 15.8 175.8 23.4 181.6 37C 193.2 64.5 188.1 96.6 161.8 110.8C 156.3 113.8 150.6 116.1 144.8 117.1C 122.9 121 100.9 110.7 88 91C 75.5 71.7 78.8 46.6 92.8 30C 97 25.1 101.3 19.4 107.8 17.2M 91.3 32C 82.7 44 72.7 54.9 64.1 66.9C 55.1 79.6 45.3 91.7 35.4 103.8C 26.7 114.5 17.4 124.9 10 136.5C 25.5 134.3 41.3 133.9 56.4 129.9C 70.3 126.2 84.9 126 99.2 123.8C 112.8 121.8 126.3 118.4 140 118C 141.6 118.3 143.2 116.8 144.8 117.1C 122.8 121 99.9 111.4 88 91C 76.9 71.9 80.5 49.7 91.3 32M 91.3 32C 91.7 31.3 92.2 30.6 92.8 30"></path>
            <path d="M 107.802 17.2436C 133.6298 2.332 166.6557 11.1812 181.5674 37.009C 196.479 62.8368 187.6298 95.8627 161.802 110.7744C 156.3721 113.9094 150.624 115.9941 144.793 117.0917C 122.8884 121.2148 99.8133 111.4069 88.0366 91.009C 76.532 71.0825 79.1708 46.8714 92.8382 30C 96.8858 25.0035 101.9007 20.6507 107.802 17.2436ZM 91.293 32.0022L 10 136.4573L 140.0129 118.0375L 144.793 117.0917C 122.8884 121.2148 99.8133 111.4069 88.0366 91.009C 76.9797 71.8579 78.9869 48.7491 91.293 32.0022ZM 91.293 32.0022L 92.8382 30"></path>
          </g>
        </g>
      </g>
      <g id="g-root-cp_1_g-1_1lqihqp2trg26-stroke" data-item-order="-504546" transform="translate(398, 158)">
        <g id="cp_1_g-1_1lqihqp2trg26-stroke" fill="none" stroke-linecap="round" stroke-linejoin="round" stroke-miterlimit="4" stroke="#484848" stroke-width="4">
          <g>
            <path d="M 118 64C 116.3 70.3 116.8 76.7 114.7 82.5C 107.5 103.3 87.3 116.9 64 118C 41.6 119.1 21.3 104.7 14.2 84.9C 14 84.4 13.8 84 13.6 83.5C 11.8 77.3 9.7 70.9 10 64C 10.7 49.3 16.5 36.5 25.4 26.2C 34.6 15.6 48.9 10.3 64 10C 93.8 9.4 119.4 34.2 118 64M 14.2 84.9C 22.7 105.4 30.8 126.2 39.1 146.8C 47.5 167.3 55.1 188.3 64.1 208.6C 72.7 185.9 81.6 163.2 91.3 140.9C 99.6 122 107.2 102.7 114.5 83.3C 114.5 83 114.7 82.8 114.7 82.5C 106.8 103.1 87.3 119 64 118C 41.6 117 23.9 103.6 14.2 84.9M 13.6 83.5C 13.9 83.9 13.9 84.5 14.2 84.9"></path>
            <path d="M 118 64C 118 70.4987 116.852 76.7293 114.7478 82.5C 107.1954 103.2119 87.3247 118 64 118C 41.5738 118 22.3406 104.3292 14.1793 84.8666C 13.9896 84.4141 13.8058 83.9586 13.6282 83.5C 11.2851 77.4515 10 70.8758 10 64C 10 34.1766 34.1766 10 64 10C 93.8234 10 118 34.1766 118 64ZM 14.1793 84.8666L 64.0658 208.5709L 114.5154 83.302L 114.7478 82.5C 107.1954 103.2119 87.3247 118 64 118C 41.5738 118 22.3406 104.3292 14.1793 84.8666ZM 13.6282 83.5L 14.1793 84.8666"></path>
          </g>
        </g>
      </g>
      <g id="g-root-tx__1ha2ij52u6vpk-stroke" data-item-order="0" transform="translate(518, 158)"></g>
      <g id="g-root-ic_left_1cvhykx2tregx-stroke" data-item-order="0" transform="translate(428, 188)">
        <g id="ic_left_1cvhykx2tregx-stroke" fill="none" stroke-linecap="round" stroke-linejoin="round" stroke-miterlimit="4" stroke="#484848" stroke-width="2">
          <g>
            <path d="M 13.8 44.799999C 12.8 45 11.8 44 11.8 42.799999C 11.2 37 11.4 31 11.8 25.200001C 11.8 24 12.8 22.799999 13.8 23.200001C 19.799999 24.799999 26.6 20.799999 32.400002 23.200001C 33.599998 23.6 34.599998 24 34.400002 25.200001C 34.200001 31 34.200001 37 34.400002 42.799999C 34.599998 44 33.599998 44.799999 32.400002 44.799999C 26.200001 44.799999 20 45.799999 13.8 44.799999M 10 10M 11.8 12.4C 26.4 14.4 41.599998 14.2 56.200001 12.4M 42.200001 23.200001C 46.599998 24.6 51.599998 23.200001 56.200001 23.200001M 42.200001 34C 46.799999 35 51.599998 34.200001 56.200001 34M 42.200001 44.799999C 46.799999 44.799999 51.599998 45.200001 56.200001 44.799999M 11.8 55.599998C 26.6 55.799999 41.599998 58.400002 56.200001 55.599998"></path>
            <path d="M 13.78516 44.832001C 12.68058 44.832001 11.785156 43.9366 11.785156 42.832001L 11.785156 25.167961C 11.785156 24.0634 12.68058 23.16798 13.78516 23.16798L 32.488998 23.167961C 33.593597 23.167961 34.488998 24.0634 34.488998 25.167961L 34.488998 42.832001C 34.488998 43.9366 33.593597 44.832001 32.488998 44.832001L 13.78516 44.832001ZM 10 10M 11.785156 12.33204L 56.214802 12.33204M 42.136799 23.167961L 56.214802 23.167961M 42.136799 34.003998L 56.214802 34.003998M 42.136799 44.832001L 56.214802 44.832001M 11.785156 55.667999L 56.214802 55.667999"></path>
          </g>
        </g>
      </g>
      <g id="g-root-tx_merakiui_1q7ky1d2u6txd-stroke" data-item-order="0" transform="translate(146, 254)"></g>
      <g id="g-root-ic_modu_18lx7bl2u40zq-stroke" data-item-order="0" transform="translate(302, 260)">
        <g id="ic_modu_18lx7bl2u40zq-stroke" fill="none" stroke-linecap="round" stroke-linejoin="round" stroke-miterlimit="4" stroke="#484848" stroke-width="2">
          <g>
            <path d="M 50 49C 52 49 54.200001 48.400002 56 49C 56 49 57.200001 49 57 50C 56.799999 52 56.599998 54 57 56C 57 56 57 57.200001 56 57C 54.200001 56.599998 52 56.599998 50 57C 50 57 49.200001 57 49 56C 49 54 48.799999 52 49 50C 49 50 49.200001 48.799999 50 49M 38 49C 40 49.799999 42.200001 48.400002 44 49C 44 49 45 49 45 50C 45.200001 52 44.599998 54 45 56C 45 56 45 56.799999 44 57C 42.200001 57.599998 40 57.799999 38 57C 38 57 37.400002 57 37 56C 36.599998 54 36.599998 52 37 50C 37 50 37.200001 48.599998 38 49M 44 37C 46 36.599998 48 36.799999 50 37C 50 37 51 37 51 38C 51 40 51.400002 42 51 44C 51 44 51 45 50 45C 48 45.200001 46 44.400002 44 45C 44 45 43 45 43 44C 43.200001 42 42.799999 40 43 38C 43 38 43 36.799999 44 37M 11 19C 24.4 19.4 37.799999 20.6 51 19M 17 14.6M 17 14.6C 16.799999 14.6 16.6 14.8 16.6 15C 16.6 15.2 16.799999 15.6 17 15.6C 17.4 15.4 17.6 15.2 17.6 15C 17.6 14.8 17.4 14.4 17 14.6M 21 14.6M 21 14.6C 20.799999 14.6 20.6 14.8 20.6 15C 20.6 15.2 20.799999 15.6 21 15.6C 21.4 15.4 21.6 15.2 21.6 15C 21.6 14.8 21.4 14.4 21 14.6M 25 14.6M 25 14.6C 24.799999 14.6 24.6 14.8 24.6 15C 24.6 15.2 24.799999 15.4 25 15.6C 25.4 15.6 25.6 15.2 25.6 15C 25.6 14.8 25.4 14.6 25 14.6M 37 43C 29.799999 43.799999 22.4 42.799999 15 43C 12.8 43 10.8 41.200001 11 39C 11.8 31 10.6 23 11 15C 11.2 12.8 12.8 11 15 11C 25.799999 11 36.400002 12 47 11C 49.200001 10.8 51.599998 12.8 51 15C 49.599998 20.799999 50.599998 27 51 33"></path>
            <path d="M 50.094002 49.007999L 56.094002 49.007999C 56.094002 49.007999 57.094002 49.007999 57.094002 50.007999L 57.094002 56.007999C 57.094002 56.007999 57.094002 57.007999 56.094002 57.007999L 50.094002 57.007999C 50.094002 57.007999 49.094002 57.007999 49.094002 56.007999L 49.094002 50.007999C 49.094002 50.007999 49.094002 49.007999 50.094002 49.007999M 38.094002 49.007999L 44.094002 49.007999C 44.094002 49.007999 45.094002 49.007999 45.094002 50.007999L 45.094002 56.007999C 45.094002 56.007999 45.094002 57.007999 44.094002 57.007999L 38.094002 57.007999C 38.094002 57.007999 37.094002 57.007999 37.094002 56.007999L 37.094002 50.007999C 37.094002 50.007999 37.094002 49.007999 38.094002 49.007999M 44.094002 37.007999L 50.094002 37.007999C 50.094002 37.007999 51.094002 37.007999 51.094002 38.007999L 51.094002 44.007999C 51.094002 44.007999 51.094002 45.007999 50.094002 45.007999L 44.094002 45.007999C 44.094002 45.007999 43.094002 45.007999 43.094002 44.007999L 43.094002 38.007999C 43.094002 38.007999 43.094002 37.007999 44.094002 37.007999M 11.094 19.007999L 51.094002 19.007999M 17.094 14.507999L 17.094 14.507999M 17.094 14.507999C 16.817858 14.507999 16.594 14.731857 16.594 15.007999C 16.594 15.284142 16.817858 15.507999 17.094 15.507999C 17.370142 15.507999 17.594 15.284142 17.594 15.007999C 17.594 14.731857 17.370142 14.507999 17.094 14.507999M 21.094 14.507999L 21.094 14.507999M 21.094 14.507999C 20.817858 14.507999 20.594 14.731857 20.594 15.007999C 20.594 15.284142 20.817858 15.507999 21.094 15.507999C 21.370142 15.507999 21.594 15.284142 21.594 15.007999C 21.594 14.731857 21.370142 14.507999 21.094 14.507999M 25.094 14.507999L 25.094 14.507999M 25.094 14.507999C 24.817858 14.507999 24.594 14.731857 24.594 15.007999C 24.594 15.284142 24.817858 15.507999 25.094 15.507999C 25.370142 15.507999 25.594 15.284142 25.594 15.007999C 25.594 14.731857 25.370142 14.507999 25.094 14.507999M 37.094002 43L 15.094 43C 12.884861 43 11.094 41.209137 11.094 39L 11.094 15C 11.094 12.790861 12.884861 11 15.094 11L 47.094002 11C 49.303139 11 51.094002 12.790861 51.094002 15L 51.094002 33"></path>
          </g>
        </g>
      </g>
      <g id="g-root-ic_yuan_qoefyp2tsu8a-stroke" data-item-order="0" transform="translate(554, 260)">
        <g id="ic_yuan_qoefyp2tsu8a-stroke" fill="none" stroke-linecap="round" stroke-linejoin="round" stroke-miterlimit="4" stroke="#484848" stroke-width="2">
          <g>
            <path d="M 17 27C 17.200001 23 17.4 19 17 15C 17 14 17.6 13 18.200001 12.2C 18.799999 11.2 20 10.8 21 11C 31.4 13 42.799999 8 53 11C 54 11.2 55 11.6 55.799999 12.2C 56.799999 12.8 57.200001 14 57 15C 55.400002 24.799999 56.599998 35 57 45C 57 46 56.599998 47 55.799999 47.799999C 55.200001 48.599998 54 48.599998 53 49C 46.200001 51.599998 37.799999 51.599998 31 49M 17 21C 30.200001 18.799999 43.799999 22.4 57 21M 24 16.6C 23.799999 16.4 23.6 16.200001 23.6 16C 23.4 15.8 23.799999 15.4 24 15.6M 24 16.6C 24.200001 16.6 24.6 16.200001 24.6 16C 24.4 15.8 24.200001 15.4 24 15.6M 30 16.6C 29.799999 16.6 29.6 16.200001 29.6 16C 29.4 15.8 29.799999 15.4 30 15.6M 30 16.6C 30.200001 16.4 30.4 16.200001 30.6 16C 30.6 15.8 30.200001 15.4 30 15.6M 36 16.6C 35.799999 16.4 35.599998 16.200001 35.599998 16C 35.400002 15.8 35.799999 15.6 36 15.6M 36 16.6C 36.200001 16.6 36.599998 16.200001 36.599998 16C 36.400002 15.8 36.200001 15.6 36 15.6M 23 33C 19.799999 34 16.200001 32.400002 13 33C 12 33.200001 10.6 34 11 35C 13.2 41.200001 13.2 48.799999 11 55C 10.6 56 11.8 56.799999 13 57C 16.4 57.400002 19.799999 56.200001 23 57C 24 57.200001 25 56 25 55C 24.799999 48.400002 26.200001 41.599998 25 35C 24.799999 34 24 33.200001 23 33M 25 51C 20.4 50 15.6 50.200001 11 51M 32.799999 27.200001C 32.400002 28.4 33.200001 30 32.799999 31.4C 32.799999 31.799999 33 32.400002 33.200001 32.799999C 33.400002 33.400002 33.799999 33.799999 34 34.200001C 34.400002 34.599998 34.799999 35 35.400002 35.200001C 36 35.200001 36.400002 35.400002 37 35.400002C 37.599998 35.400002 38 35.200001 38.599998 35.200001C 39.200001 35 39.599998 34.599998 40 34.200001C 40.200001 33.799999 40.400002 33.200001 40.799999 32.799999C 41.200001 32.599998 41.200001 31.799999 41.200001 31.4C 41 30 40.599998 28.4 41.200001 27.200001M 37 35.400002C 37.200001 38.200001 37.599998 40.799999 37 43.400002M 32.799999 40C 35.599998 40.400002 38.400002 39.400002 41.200001 40"></path>
            <path d="M 17 27L 17 15C 17 13.93914 17.421421 12.921721 18.171581 12.17158C 18.921719 11.421428 19.93914 11 21 11L 53 11C 54.060799 11 55.078201 11.421428 55.8284 12.17158C 56.578602 12.921721 57 13.93914 57 15L 57 45C 57 46.060799 56.578602 47.078201 55.8284 47.8284C 55.078201 48.578602 54.060799 49 53 49L 31 49M 17 21L 57 21M 24 16.5C 23.72386 16.5 23.5 16.27614 23.5 16C 23.5 15.72386 23.72386 15.5 24 15.5M 24 16.5C 24.27614 16.5 24.5 16.27614 24.5 16C 24.5 15.72386 24.27614 15.5 24 15.5M 30 16.5C 29.72386 16.5 29.5 16.27614 29.5 16C 29.5 15.72386 29.72386 15.5 30 15.5M 30 16.5C 30.276199 16.5 30.5 16.27614 30.5 16C 30.5 15.72386 30.276199 15.5 30 15.5M 36 16.5C 35.723801 16.5 35.5 16.27614 35.5 16C 35.5 15.72386 35.723801 15.5 36 15.5M 36 16.5C 36.276199 16.5 36.5 16.27614 36.5 16C 36.5 15.72386 36.276199 15.5 36 15.5M 23 33L 13 33C 11.89543 33 11 33.895401 11 35L 11 55C 11 56.104599 11.89543 57 13 57L 23 57C 24.104561 57 25 56.104599 25 55L 25 35C 25 33.895401 24.104561 33 23 33ZM 25 51L 11 51M 32.864799 27.16552L 32.864799 31.3008C 32.864799 31.8438 32.971802 32.381401 33.1796 32.883202C 33.387398 33.385002 33.692001 33.840797 34.076 34.2248C 34.459999 34.608803 34.915802 34.913399 35.4174 35.121201C 35.919201 35.329002 36.457001 35.436001 37 35.436001C 37.542999 35.436001 38.080799 35.329002 38.582397 35.121201C 39.084198 34.913399 39.540001 34.608803 39.924 34.2248C 40.307999 33.840797 40.612602 33.385002 40.8204 32.883202C 41.028198 32.381401 41.135201 31.8438 41.135201 31.3008L 41.135201 27.16552M 37.000198 35.4366L 37.000198 43.4464M 32.864799 39.917L 41.135201 39.917"></path>
          </g>
        </g>
      </g>
      <g id="g-root-tx_hyperui_13z8h8x2u6u4p-stroke" data-item-order="0" transform="translate(650, 260)"></g>
      <g id="g-root-tx__1hbxxsh2u6uq2-stroke" data-item-order="0" transform="translate(98, 289.99993896484375)"></g>
      <g id="g-root-tx__13z8h8x2u6u4q-stroke" data-item-order="0" transform="translate(650, 295.99993896484375)"></g>
      <g id="g-root-tx_preline_1lpw0nl2u6uxb-stroke" data-item-order="0" transform="translate(518, 122)"></g>
      <g id="g-root-tx_tailwind_1hbbgpd2trdoo-stroke" data-item-order="0" transform="translate(326, 38)"></g>
      <g id="g-root-tx__dcxxld2u6u4u-stroke" data-item-order="0" transform="translate(182, 553.9999389648438)"></g>
      <g id="g-root-tx_mambaui_8x4fgx2u6ux3-stroke" data-item-order="0" transform="translate(146, 391.99993896484375)"></g>
      <g id="g-root-ic_lubu_m7ygr52tyfph-stroke" data-item-order="0" transform="translate(302, 403.99993896484375)">
        <g id="ic_lubu_m7ygr52tyfph-stroke" fill="none" stroke-linecap="round" stroke-linejoin="round" stroke-miterlimit="4" stroke="#484848" stroke-width="2">
          <g>
            <path d="M 11 34C 13 46.599998 21.6 59.599998 34 57C 46.400002 54.400002 55.799999 46.599998 57 34C 58.200001 21.4 46.799999 10.6 34 11C 21.4 11.4 12 21.4 11 34M 37.799999 21.6C 38 19.799999 39.599998 18.4 39.799999 16.6C 37.799999 17.6 35.799999 18.6 33.599998 19.6C 25.200001 22.799999 18.200001 28.200001 11 34C 14 32.400002 17.4 31.4 20.6 32C 18 36 16.4 40.599998 13.4 44.200001C 19.200001 38.799999 22.6 36 22.6 36C 19.799999 40.200001 21 46.599998 17.200001 49.599998C 26.6 41.799999 27.200001 36.200001 30.4 32.799999C 33.599998 29.200001 34.200001 30.799999 38.200001 34C 43.200001 39 44 46.599998 47.400002 52.799999C 46.200001 43 49.599998 31.799999 37.799999 21.6"></path>
            <path d="M 11 34C 11 46.702549 21.297451 57 34 57C 46.702549 57 57 46.702549 57 34C 57 21.297451 46.702549 11 34 11C 21.297451 11 11 21.297451 11 34M 37.879997 21.58L 39.879997 16.619999C 37.644417 17.191607 35.535034 18.175083 33.66 19.52C 25.031008 22.410141 17.247896 27.38364 11 34C 14.091991 32.843739 17.343225 32.169209 20.640001 32C 18.719076 36.351891 16.288769 40.46059 13.4 44.239998C 19.4 39.120003 22.540001 36.040001 22.540001 36.040001C 21.607857 40.865517 19.761349 45.468208 17.1 49.600002C 24.9 39.98 27.34 36.279999 30.360001 32.700001C 33.379997 29.120001 35.52 29.68 38.220001 34C 41.841316 39.946644 44.894787 46.220989 47.34 52.739998C 47.639999 42.84 48.959999 32.299999 37.879997 21.58Z"></path>
          </g>
        </g>
      </g>
      <g id="g-root-ic_node_1qbbsk12tu683-stroke" data-item-order="0" transform="translate(554, 403.99993896484375)">
        <g id="ic_node_1qbbsk12tu683-stroke" fill="none" stroke-linecap="round" stroke-linejoin="round" stroke-miterlimit="4" stroke="#484848" stroke-width="2">
          <g>
            <path d="M 34 57C 41.799999 54.799999 47.200001 46.400002 55 44C 55.400002 37.400002 56.599998 30.4 55 24C 47.599998 20.4 41.599998 14 34 11C 28.200001 16.799999 19.200001 18.6 13 24C 11.4 30.4 11 37.599998 13 44C 20.4 47.599998 26.799999 53.200001 34 57M 21 41C 23.799999 36.400002 27 31.799999 31 28C 36.400002 27.6 41.599998 26.6 47 27C 44 31.4 40.799999 35.599998 38 40C 32.400002 39.400002 26.6 40.799999 21 41M 33 34C 32.799999 34.599998 33.400002 34.799999 34 35C 34.599998 35.200001 35 34.599998 35 34C 35 33.400002 34.599998 33 34 33C 33.400002 33 32.799999 33.400002 33 34"></path>
            <path d="M 34 57L 55 44L 55 24L 34 11L 13 24L 13 44L 34 57ZM 21 41L 31 28L 47 27L 38 40L 21 41ZM 33 34C 33 34.552284 33.447716 35 34 35C 34.552284 35 35 34.552284 35 34C 35 33.447716 34.552284 33 34 33C 33.447716 33 33 33.447716 33 34"></path>
          </g>
        </g>
      </g>
      <g id="g-root-tx_tailwind_qnryvl2u6vpn-stroke" data-item-order="0" transform="translate(650, 398.99993896484375)"></g>
      <g id="g-root-tx__1umrz2p2u6waw-stroke" data-item-order="0" transform="translate(50, 427.99993896484375)"></g>
      <g id="g-root-tx__qnryvl2u6vpo-stroke" data-item-order="0" transform="translate(650, 434.99993896484375)"></g>
      <g id="g-root-ic_gaug_zjez4h2tx0qs-stroke" data-item-order="0" transform="translate(428, 475.99993896484375)">
        <g id="ic_gaug_zjez4h2tx0qs-stroke" fill="none" stroke-linecap="round" stroke-linejoin="round" stroke-miterlimit="4" stroke="#484848" stroke-width="2">
          <g>
            <path d="M 57 49C 56.599998 51.200001 55.200001 53.200001 53 53C 40.400002 51.200001 27.6 54.599998 15 53C 12.8 52.799999 11.2 51.200001 11 49C 9.8 38.400002 12.2 27.6 11 17C 10.8 14.8 13 12.2 15 13C 26.799999 17.4 40.400002 12.6 53 13C 55.200001 13 57 14.8 57 17C 57.200001 27.6 53.799999 38.799999 57 49M 11 23C 26.200001 21.799999 41.799999 20.4 57 23M 18.6 17M 18.6 17C 18.200001 17 18 17.200001 18 17.6C 18 17.799999 18.200001 18 18.6 18C 18.799999 18 19 17.799999 19 17.6C 19 17.200001 18.799999 17 18.6 17M 24.6 17M 24.6 17C 24.200001 17 24 17.200001 24 17.6C 24 17.799999 24.200001 18 24.6 18C 24.799999 18 25 17.799999 25 17.6C 25 17.200001 24.799999 17 24.6 17M 30.6 17M 30.6 17C 30.200001 17 30 17.200001 30 17.6C 30 17.799999 30.200001 18 30.6 18C 30.799999 18 31 17.799999 31 17.6C 31 17.200001 30.799999 17 30.6 17M 18 46C 19.4 46 20.799999 45.599998 22 46M 20.200001 38C 21.4 38.200001 22.6 39.200001 23.6 40M 26 32.200001C 26.6 33.400002 27.4 34.400002 28 35.599998M 34 30C 34.400002 31.200001 33.599998 32.799999 34 34M 47.799999 38C 46.599998 38.400002 45.599998 39.400002 44.400002 40M 50 46C 48.599998 45.799999 47.400002 46.200001 46 46M 41.200001 33.799999C 41.400002 32.799999 41.200001 32.599998 40.599998 33.400002C 38.400002 36.599998 34.400002 38.200001 32.400002 41.599998C 31.799999 42.599998 30.6 43.799999 31 45C 31 45.400002 31 45.599998 31 46C 31 46.400002 31.200001 47 31.6 47.200001C 32 47.599998 32.599998 47.799999 33 47.599998C 33.200001 47.400002 33.599998 47.400002 34 47.400002C 35.200001 47.599998 36.200001 46.200001 36.799999 45.200001C 39.599998 42.200001 40.200001 37.799999 41.200001 33.799999"></path>
            <path d="M 57 49C 57 51.209141 55.209141 53 53 53L 15 53C 12.790861 53 11 51.209141 11 49L 11 17C 11 14.790861 12.790861 13 15 13L 53 13C 55.209141 13 57 14.790861 57 17ZM 11 23L 57 23M 18.5 17L 18.5 17M 18.5 17C 18.223858 17 18 17.223858 18 17.5C 18 17.776142 18.223858 18 18.5 18C 18.776142 18 19 17.776142 19 17.5C 19 17.223858 18.776142 17 18.5 17M 24.5 17L 24.5 17M 24.5 17C 24.223858 17 24 17.223858 24 17.5C 24 17.776142 24.223858 18 24.5 18C 24.776142 18 25 17.776142 25 17.5C 25 17.223858 24.776142 17 24.5 17M 30.5 17L 30.5 17M 30.5 17C 30.223858 17 30 17.223858 30 17.5C 30 17.776142 30.223858 18 30.5 18C 30.776142 18 31 17.776142 31 17.5C 31 17.223858 30.776142 17 30.5 17M 18 46.001999L 22 46.001999M 20.144001 38.001999L 23.608 40.001999M 26 32.143997L 28 35.608002M 34 30L 34 33.998001M 47.860001 37.998001L 44.396 39.996002M 50.004002 45.998001L 46.006001 45.998001M 41.257999 33.860001C 41.658001 32.837997 41.363998 32.638 40.585999 33.416L 32.414001 41.587997C 31.567923 42.531158 31.069092 43.734844 31 45L 31 46C 30.978792 46.497948 31.193777 46.976711 31.580027 47.291695C 31.966274 47.606678 32.4785 47.720951 32.961998 47.600002L 34.038002 47.383999C 35.229252 47.074974 36.220623 46.250786 36.742001 45.136002Z"></path>
          </g>
        </g>
      </g>
      <g id="g-root-tx_flowbite_m8kxu92u6tc5-stroke" data-item-order="0" transform="translate(290, 517.9999389648438)"></g>
    </g>
  </g>
  <path id="w1uto2mp47s6x1" d="M65.283 12.757a.35.35 0 0 0 .584.157l5.203-5.141-6.183 3.523.396 1.461zm-2.216-11.7a.35.35 0 0 0-.522.305v3.111l3.276-1.868-2.754-1.548zm3.728 2.105l-4.25 2.421v2.445l6.391-3.644-2.141-1.222zm4.708 3.303a.35.35 0 0 0 0-.609l-1.592-.9-7.365 4.199v1.782a.35.35 0 0 0 .523.305l8.435-4.777z M44.542 2.513c0-.433.355-.783.792-.783s.792.35.792.783-.355.783-.792.783-.792-.35-.792-.783zm59.171 0c0-.433.355-.783.792-.783s.792.35.792.783-.355.783-.792.783-.792-.35-.792-.783zm-85.951 7.636h-1.27v-.487c-.276.201-.864.609-1.881.609-1.202 0-2.274-.794-2.137-2.078.118-1.106 1.153-1.584 1.848-1.727l2.17-.345c0-.539-.29-.956-1.064-1.006s-1.21.305-1.571 1.017l-1.124-.605c1.218-2.631 5.029-1.764 5.029.414v4.207zm-1.27-2.86c.006.396-.062 1.112-.819 1.59-.587.37-1.841.299-1.903-.395-.049-.555.461-.791.906-.898l1.816-.297zm72.662 2.86h-1.27v-.487c-.276.201-.864.609-1.881.609-1.202 0-2.274-.794-2.137-2.078.118-1.106 1.153-1.584 1.848-1.727l2.17-.345c0-.539-.29-.956-1.064-1.006s-1.21.305-1.571 1.017l-1.124-.605c1.218-2.631 5.029-1.764 5.029.414v4.207zm-1.27-2.86c.006.396-.062 1.112-.82 1.59-.587.37-1.841.299-1.903-.395-.049-.555.461-.791.906-.898l1.816-.297zM99.096 10.149H97.85v-8.45h1.246v4.895l2.68-2.559h1.738l-2.633 2.535 2.715 3.578h-1.556l-2.077-2.707-.867.844v1.863zm6.053-6.114h-1.255v6.113h1.255V4.035zm-59.2 0h-1.255v6.113h1.255V4.035zm5.584 6.113V1.697h1.255v2.695c.361-.346 1-.485 1.47-.485 1.452 0 2.477 1.082 2.457 2.448v3.792h-1.27v-3.68c0-.408-.214-1.339-1.315-1.339-.968 0-1.342.756-1.342 1.339v3.681h-1.255zm-4.76-4.894V4.039h.621a.45.45 0 0 0 .45-.45v-.855h1.251v1.305h1.309v1.215h-1.309v3.109c0 .293.105.664.648.664.365 0 .531-.035.736-.07v1.137s-.361.113-.857.113c-1.398 0-1.777-1.051-1.777-1.788V5.254h-1.071zM36.528 4.039h-1.394l2.191 6.106h1.125l1.234-3.918 1.238 3.918h1.129l2.188-6.106h-1.383l-1.359 3.93-1.256-3.93h-1.124l-1.242 3.957-1.348-3.957zM26.212 7.141c-.02 1.566 1.187 3.129 3.223 3.129 1.566 0 2.383-.918 2.734-1.719L31.172 8c-.315.399-.801 1.094-1.738 1.094-1.145 0-1.825-.781-1.891-1.52h4.625c.074-.284.148-.995-.03-1.559-.336-1.064-1.221-2.102-2.839-2.102s-3.088 1.152-3.088 3.227zm1.363-.75h3.348c-.055-.43-.566-1.301-1.623-1.301a1.79 1.79 0 0 0-1.725 1.301zm-8.758.75c.038 1.758 1.277 3.133 3.145 3.133 1.074 0 1.723-.477 1.961-.672v.547h1.242V1.703h-1.258v2.888c-.414-.36-1.062-.68-1.93-.68-1.91 0-3.198 1.473-3.16 3.23zm1.309-.08c0 1.119.723 1.978 1.836 1.978a1.88 1.88 0 0 0 1.94-1.904c0-1.371-1.011-1.99-1.972-1.99s-1.805.798-1.805 1.916zm76.683-.028C96.771 5.275 95.532 3.9 93.664 3.9c-1.074 0-1.723.477-1.961.672v-.547h-1.242v8.22h1.258V9.583c.414.36 1.063.68 1.93.68 1.91 0 3.198-1.473 3.16-3.23zm-1.309.08c0-1.119-.723-1.978-1.836-1.978a1.88 1.88 0 0 0-1.94 1.904c0 1.371 1.011 1.99 1.972 1.99S95.5 8.231 95.5 7.113zM106.441 10.173V4.036h1.254v.382c.361-.346 1-.485 1.47-.485 1.452 0 2.477 1.082 2.457 2.448v3.792h-1.27V6.492c0-.408-.214-1.339-1.315-1.339-.969 0-1.342.756-1.342 1.339v3.681h-1.254zm-30.383-.021V1.824h1.084l4.215 5.777V1.824h1.32v8.328h-1.094l-4.207-5.796v5.796h-1.319zM5.24 10.149H4V2.377h1.014l2.664 3.597 2.654-3.592h1.03v7.766h-1.256V4.762L7.678 8.068 5.24 4.742v5.407z" transform="translate(788, 637.9999389648438)" fill="#80808088" stroke="none"></path>
</svg>
